Coordinates
version=1
nRows=9
nColumns=24
inDegrees=yes

Units are S.I. units (second, meters, Newtons, ...)
Angles are in degrees.

endheader
time	pelvis_tilt	pelvis_list	pelvis_rotation	pelvis_tx	pelvis_ty	pelvis_tz	hip_flexion_r	hip_adduction_r	hip_rotation_r	knee_angle_r	ankle_angle_r	subtalar_angle_r	mtp_angle_r	hip_flexion_l	hip_adduction_l	hip_rotation_l	knee_angle_l	ankle_angle_l	subtalar_angle_l	mtp_angle_l	lumbar_extension	lumbar_bending	lumbar_rotation
      1.10800000	     -0.67850411	      0.50596268	     -4.69743111	     -0.16123781	      0.99358468	      0.28035698	    -16.20755500	      3.28424226	      2.96327192	     -6.12392145	     12.38499491	     -9.56785915	      6.73368162	     22.10289045	      0.41776117	     -9.20691292	      4.10460231	      2.87512429	     -6.30607871	      6.48652273	     -2.91692426	     -0.22848348	     11.38659976
      1.11216667	     -0.65201641	      0.57540836	     -4.79206602	     -0.15527006	      0.99307733	      0.28021902	    -16.33110921	      3.13773289	      2.89374102	     -6.64777637	     12.53039044	     -9.28844605	      6.75625543	     22.10514032	      0.52294058	     -9.06689430	      3.79792775	      2.93036315	     -6.67158519	      6.47242602	     -2.89596352	     -0.33561030	     11.56168772
      1.11633333	     -0.62128718	      0.65762597	     -4.87863996	     -0.14924869	      0.99262197	      0.28010579	    -16.47962658	      2.98565122	      2.91329155	     -7.12774889	     12.54892805	     -9.22121994	      6.77483962	     22.12057092	      0.63618379	     -8.95166289	      3.38592968	      3.01540483	     -6.90555617	      6.47204727	     -2.87335311	     -0.48170348	     11.61679618
      1.12050000	     -0.61423332	      0.75639402	     -4.96576874	     -0.14319424	      0.99217122	      0.27996267	    -16.57089752	      2.81149756	      2.88144520	     -7.66985095	     12.57752794	     -9.04130598	      6.81480448	     22.15853485	      0.76612157	     -8.76862829	      2.92455299	      3.02334677	     -7.22216741	      6.47963965	     -2.84611352	     -0.62504227	     11.72991235
      1.12466667	     -0.59460192	      0.85467063	     -5.05207554	     -0.13709344	      0.99177553	      0.27980890	    -16.66042055	      2.63362537	      2.80532365	     -8.24078256	     12.58114607	     -8.82063826	      6.89185056	     22.17748461	      0.89783118	     -8.55655258	      2.42544017	      2.92911648	     -7.60683957	      6.50231537	     -2.80652010	     -0.76313269	     11.84731065
      1.12883333	     -0.56714204	      0.97604431	     -5.14161594	     -0.13093264	      0.99142643	      0.27967989	    -16.76029379	      2.43332206	      2.78894548	     -8.80819874	     12.54266264	     -8.70717949	      6.96139442	     22.18620525	      1.04989805	     -8.33062707	      1.87644972	      2.88959154	     -7.91573601	      6.52950342	     -2.77514923	     -0.95118214	     11.92988827
      1.13300000	     -0.55066139	      1.10041259	     -5.22674073	     -0.12473473	      0.99109679	      0.27951847	    -16.82263320	      2.22646723	      2.71663260	     -9.42434137	     12.48675373	     -8.51926574	      7.06045358	     22.20231130	      1.20937788	     -8.06301645	      1.30312618	      2.74548809	     -8.30318627	      6.57045433	     -2.72264865	     -1.13425172	     12.03422338
      1.13716667	     -0.53165699	      1.21986571	     -5.31431248	     -0.11851617	      0.99081573	      0.27933879	    -16.87004299	      2.02015856	      2.63560787	    -10.07159073	     12.40905912	     -8.29590024	      7.22945103	     22.20666533	      1.36647444	     -7.76332295	      0.72118817	      2.48676008	     -8.76738814	      6.64168794	     -2.66945938	     -1.29114237	     12.13955213
      1.14133333	     -0.50994611	      1.37419531	     -5.39490984	     -0.11220995	      0.99056928	      0.27916981	    -16.91743688	      1.78099762	      2.56539499	    -10.72445713	     12.27958011	     -8.15703766	      7.37640713	     22.20404182	      1.56051092	     -7.46669238	      0.11408899	      2.29232976	     -9.13440041	      6.70470247	     -2.60380481	     -1.52348593	     12.22153747
